PathFileType	4	(X/Y/Z)	Kaydara																																																																																																																									
DataRate	CameraRate	NumFrames	NumMarkers	Units	OrigDataRate	OrigDataStartFrame	OrigNumFrames																																																																																																																					
30	30	6	41	mm	30	16	104																																																																																																																					
Frame#	Time	EMLA_LFHD			EMLA_RFHD			EMLA_LBHD			EMLA_RBHD			EMLA_LFTShould			EMLA_RFTShould			EMLA_LRRShould			EMLA_RRRShould			EMLA_T10			EMLA_STRN			EMLA_TRUN			EMLA_LSHO			EMLA_LUPA			EMLA_LELB			EMLA_LFRM			EMLA_LWRA			EMLA_LWRB			EMLA_LFIN			EMLA_RSHO			EMLA_RUPA			EMLA_RELB			EMLA_RFRM			EMLA_RWRA			EMLA_RWRB			EMLA_RFIN			EMLA_LFWT			EMLA_RFWT			EMLA_LBWT			EMLA_RBWT			EMLA_LTHI			EMLA_LKNE			EMLA_LSHN			EMLA_LANK			EMLA_LHEE			EMLA_LTOE			EMLA_RTHI			EMLA_RKNE			EMLA_RSHN			EMLA_RANK			EMLA_RHEE			EMLA_RTOE		
		X1	Y1	Z1	X2	Y2	Z2	X3	Y3	Z3	X4	Y4	Z4	X5	Y5	Z5	X6	Y6	Z6	X7	Y7	Z7	X8	Y8	Z8	X9	Y9	Z9	X10	Y10	Z10	X11	Y11	Z11	X12	Y12	Z12	X13	Y13	Z13	X14	Y14	Z14	X15	Y15	Z15	X16	Y16	Z16	X17	Y17	Z17	X18	Y18	Z18	X19	Y19	Z19	X20	Y20	Z20	X21	Y21	Z21	X22	Y22	Z22	X23	Y23	Z23	X24	Y24	Z24	X25	Y25	Z25	X26	Y26	Z26	X27	Y27	Z27	X28	Y28	Z28	X29	Y29	Z29	X30	Y30	Z30	X31	Y31	Z31	X32	Y32	Z32	X33	Y33	Z33	X34	Y34	Z34	X35	Y35	Z35	X36	Y36	Z36	X37	Y37	Z37	X38	Y38	Z38	X39	Y39	Z39	X40	Y40	Z40	X41	Y41	Z41
																																																																																																																												
1	0.5	264.3071	1632.88391	-1936.10687	94.86231	1626.02463	-1942.40341	283.41177	1633.367	-2086.76758	88.88377	1628.8269	-2095.42328	270.36785	1403.43002	-2005.6427	120.16918	1395.09552	-1997.11487	256.49057	1448.69843	-2154.39301	99.22716	1440.33173	-2144.82056	188.01003	1272.715	-2192.97806	196.36255	1335.03815	-1962.44247	191.9989	1232.46506	-1939.07898	393.21373	1422.51648	-2064.91486	446.67	1237.60391	-2071.9751	461.79794	1094.15894	-2063.61786	459.50089	959.71634	-2047.19269	371.93775	822.26181	-1961.72379	430.94662	799.64523	-2018.18863	422.66502	769.54575	-1955.45563	-6.13409	1423.86398	-2056.37207	-61.8262	1228.43307	-2044.52728	-76.85826	1084.8362	-2053.02567	-77.11759	982.49802	-2049.58405	2.2497	831.02013	-1942.65915	-50.76408	806.27243	-2004.08585	-56.42137	780.01892	-1944.99878	293.8294	996.09688	-1960.29327	57.8757	983.38898	-1974.04633	272.14344	1014.69276	-2160.44891	96.12803	1016.09421	-2155.62057	319.38055	730.40344	-2144.14459	324.16523	525.02663	-2102.18292	299.35873	342.79758	-2090.11078	301.8718	164.82134	-2159.29611	236.20911	84.18917	-2216.09695	271.4924	74.23244	-2018.13095	62.32162	712.71042	-2162.10693	26.74189	512.74464	-2098.91327	66.58964	289.62759	-2092.78778	26.90414	129.82982	-2172.35886	81.74132	77.61776	-2226.41922	49.33705	72.12054	-2024.78638
2	0.533	264.68504	1632.75711	-1935.41901	95.21027	1626.04919	-1941.88217	283.85319	1633.20007	-2086.0228	89.34592	1628.88153	-2094.9263	270.85974	1403.41354	-2004.88007	120.39297	1395.20172	-1996.56113	256.81042	1448.63602	-2153.71933	99.53942	1440.327	-2144.25476	188.30149	1272.6889	-2192.37671	196.46702	1335.08102	-1961.8837	192.07495	1232.36176	-1938.31146	393.48648	1422.4173	-2064.2569	446.85699	1237.47017	-2071.8251	462.07005	1094.04068	-2063.72147	459.49471	959.37233	-2047.25723	371.79794	822.13905	-1961.93039	430.60345	799.41139	-2018.45383	422.27997	769.26819	-1955.74615	-5.85987	1423.8826	-2055.84122	-61.5842	1228.40981	-2044.09241	-76.65226	1084.91928	-2052.62527	-76.8614	982.46513	-2049.02771	2.78107	831.34201	-1941.82053	-50.38193	806.34872	-2003.2724	-56.13797	780.19402	-1944.14917	293.95651	995.95993	-1959.73755	58.1441	983.45619	-1973.41003	272.29984	1014.78134	-2159.87946	96.25267	1016.16577	-2155.03601	319.47481	730.39818	-2143.71506	324.27937	525.00851	-2101.79688	299.42173	342.69718	-2089.83139	301.85877	164.86515	-2159.21555	236.21609	84.21236	-2216.10184	271.55163	74.25001	-2018.1221	62.51535	712.73232	-2161.64932	26.80797	512.71076	-2098.66501	66.62998	289.55259	-2092.6561	26.90017	129.85286	-2172.31583	81.78669	77.61674	-2226.37985	49.32467	72.12198	-2024.79095
3	0.567	264.92876	1632.57263	-1934.61563	95.53295	1625.98236	-1941.27136	284.29861	1633.07892	-2085.25085	89.82709	1628.86749	-2094.25323	271.13302	1403.54691	-2004.50104	120.86947	1395.27893	-1995.70557	257.11809	1448.6348	-2153.07205	99.82665	1440.32593	-2143.6084	188.56077	1272.67265	-2191.79047	196.814	1334.98077	-1961.26785	192.60519	1232.3291	-1938.05145	393.75732	1422.32117	-2063.50861	447.15534	1237.3954	-2071.19446	462.41268	1094.011	-2063.42163	459.59534	959.24843	-2047.09976	371.65424	822.03262	-1961.96503	430.45357	799.13345	-2018.38074	421.9566	769.04816	-1955.69443	-5.57219	1423.90228	-2055.18448	-61.43244	1228.46382	-2043.51898	-76.53862	1084.92317	-2051.96854	-76.68833	982.44812	-2048.25974	2.81675	831.3504	-1940.95398	-50.06255	806.38306	-2002.35992	-55.75173	780.27565	-1943.1636	294.08993	995.83626	-1959.27612	58.32794	983.35068	-1972.87979	272.46244	1014.65332	-2159.34875	96.436	1016.14708	-2154.53705	319.56516	730.33119	-2143.16574	324.27704	524.91734	-2101.24664	299.47649	342.63588	-2089.51828	301.82251	164.76326	-2159.07242	236.17125	84.24555	-2216.02325	271.57726	74.19232	-2018.07159	62.7827	712.75093	-2161.32233	26.90062	512.70142	-2098.46191	66.66468	289.51639	-2092.54593	26.97652	129.87247	-2172.31812	81.83689	77.61983	-2226.37024	49.34329	72.12961	-2024.80316
4	0.6	265.23647	1632.40143	-1933.80356	95.90602	1625.8168	-1940.49652	284.68679	1633.04657	-2084.44138	90.19346	1628.88596	-2093.56903	271.46229	1403.53851	-2003.89618	121.73653	1395.3067	-1994.63593	257.40788	1448.56415	-2152.50366	100.02832	1440.32639	-2142.97028	188.79959	1272.64084	-2191.18332	197.7713	1334.77448	-1960.25742	192.92038	1232.25281	-1937.36664	394.04121	1422.22977	-2062.854	447.47383	1237.34085	-2070.5188	462.57015	1093.83362	-2062.83035	459.68857	958.9711	-2046.62521	371.5802	821.80283	-1961.82831	430.50842	798.88138	-2018.08624	421.81381	768.89099	-1955.24384	-5.30658	1423.87482	-2054.5134	-61.27215	1228.44833	-2042.63306	-76.45462	1084.93996	-2051.05103	-76.52444	982.4202	-2047.30896	3.20921	831.46523	-1939.99359	-49.79329	806.38321	-2001.28143	-55.39129	780.29564	-1942.08282	294.20628	995.73013	-1958.51379	58.28057	983.14514	-1972.51663	272.75135	1014.5874	-2158.72437	96.71308	1016.19919	-2154.06296	319.77238	730.28725	-2142.68387	324.36436	524.84509	-2101.02127	299.46915	342.62947	-2089.38324	301.84689	164.85254	-2158.99506	236.21141	84.31806	-2216.00433	271.6094	74.17655	-2018.04718	62.90847	712.72629	-2161.02264	26.99802	512.66907	-2098.19168	66.69078	289.51832	-2092.4057	26.98546	129.94225	-2172.28073	81.85582	77.702	-2226.36673	49.34013	72.11874	-2024.77692
5	0.633	265.54712	1632.10938	-1932.95074	95.95535	1625.69839	-1939.75204	285.00484	1633.04596	-2083.56873	90.48423	1628.96713	-2092.78656	271.82648	1403.29285	-2003.00919	121.15325	1395.10345	-1994.80286	257.66281	1448.50372	-2151.90414	100.25485	1440.29297	-2142.33246	188.96397	1272.55058	-2190.51025	197.91969	1334.80774	-1959.61761	193.03226	1232.2934	-1936.55518	394.27967	1422.13577	-2062.24396	447.74319	1237.2126	-2069.87228	462.67361	1093.63701	-2062.22809	459.80282	958.80867	-2046.11374	371.67389	821.66786	-1961.28723	430.62309	798.6898	-2017.5415	422.0015	768.77014	-1954.67621	-5.05979	1423.84079	-2053.78357	-61.03008	1228.47984	-2041.65329	-76.24493	1084.91516	-2050.0145	-76.37076	982.40211	-2046.20056	3.52398	831.52451	-1938.94791	-49.66031	806.40472	-2000.15976	-55.14292	780.33119	-1940.97504	294.21257	995.84877	-1957.55753	58.512	983.20915	-1971.70242	273.03677	1014.72549	-2157.90466	96.99739	1016.2648	-2153.36609	319.80131	730.41107	-2142.42767	324.53644	524.9192	-2101.07498	299.67388	342.68787	-2089.3924	301.88112	164.96017	-2159.0683	236.18916	84.35743	-2215.96268	271.66079	74.18096	-2018.06732	63.12275	712.66792	-2160.59875	27.0878	512.64488	-2097.80655	66.74001	289.47046	-2092.19147	27.01981	129.94908	-2172.19177	81.87003	77.72239	-2226.32904	49.34141	72.11486	-2024.76624
6	0.667	265.807	1631.85043	-1932.09	96.3213	1625.50049	-1938.87039	285.30666	1633.13568	-2082.73453	90.75885	1629.11728	-2091.91971	271.86428	1403.43475	-2002.55157	121.83768	1395.34821	-1993.79761	257.89261	1448.54004	-2151.24481	100.45618	1440.33081	-2141.73416	189.14604	1272.57576	-2189.83521	197.81584	1334.9646	-1959.05319	193.17984	1232.41486	-1935.73349	394.48566	1422.08694	-2061.51688	447.90428	1237.18727	-2069.2659	462.83501	1093.63342	-2061.58798	459.97974	958.83141	-2045.50232	371.93691	821.57768	-1960.44037	430.86086	798.63731	-2016.83472	422.35126	768.74878	-1953.91663	-4.8691	1423.88	-2053.17703	-60.91175	1228.79578	-2041.00296	-75.97353	1084.95155	-2048.99109	-76.18519	982.46155	-2045.15732	3.65525	831.58371	-1937.67532	-49.57057	806.49635	-1998.97507	-55.08992	780.46974	-1939.75449	294.28551	995.87013	-1956.94107	58.80994	982.96318	-1970.90164	273.21781	1014.99542	-2157.2464	97.03416	1016.39832	-2152.54822	319.77932	730.45341	-2142.10373	324.68605	524.98119	-2100.92377	299.94305	342.71473	-2089.24469	301.89014	165.03429	-2159.09744	236.11542	84.47574	-2215.80536	271.70738	74.23203	-2018.03131	63.27081	712.52686	-2159.68521	27.22995	512.60014	-2097.56332	66.81001	289.47906	-2092.09412	27.06572	129.97507	-2172.16324	81.91185	77.78188	-2226.31119	49.35218	72.10917	-2024.75632
